<svg xmlns="http://www.w3.org/2000/svg" version="1.1" xmlns:xlink="http://www.w3.org/1999/xlink" width="1500" height="1500" viewBox="0 0 1500 1500"><rect width="1500" height="1500" x="0" y="0" id="background" stroke="transparent" fill="#102e44"></rect><svg xml:space="preserve" width="1000" height="1000" data-version="2" data-id="lg_RFSv2ah6aiLNRqmiu9" viewBox="0 0 566 243" x="250" y="250"><rect width="100%" height="100%" fill="transparent"></rect><circle r="50" fill="none" stroke="#fff" stroke-width="2" paint-order="stroke" transform="translate(124.8 121.5)scale(2.3357)"></circle><circle r="50" fill="none" stroke="#fff" paint-order="stroke" transform="translate(124.8 121.5)scale(1.8739)"></circle><path fill="#fff" d="M109.12 73.206c.286-.65.45-1.365.45-2.121a5.288 5.288 0 0 0-5.28-5.282 5.288 5.288 0 0 0-5.282 5.282 5.288 5.288 0 0 0 5.281 5.281c.625 0 1.217-.128 1.773-.328l40.501 43.394L123.78 165c-.1-.005-.195-.03-.296-.03a5.288 5.288 0 0 0-5.282 5.281 5.288 5.288 0 0 0 5.282 5.282 5.288 5.288 0 0 0 5.281-5.282 5.232 5.232 0 0 0-1.26-3.384L150.934 120a2.086 2.086 0 0 0-.34-2.353z"></path><path fill="#fff" d="M138.143 120a2.083 2.083 0 0 0-.39-2.403l-44.56-44.56a5.215 5.215 0 0 0 .383-1.952 5.288 5.288 0 0 0-5.281-5.282 5.288 5.288 0 0 0-5.282 5.282 5.288 5.288 0 0 0 5.282 5.281 5.24 5.24 0 0 0 1.95-.383l24.442 24.442c-.048.04-.108.057-.153.102l-22.029 22.03-11.133-11.133a5.248 5.248 0 0 0 .383-1.952 5.287 5.287 0 0 0-5.28-5.282 5.288 5.288 0 0 0-5.281 5.282 5.288 5.288 0 0 0 5.281 5.281c.69 0 1.347-.141 1.951-.383l11.135 11.133-11.81 11.811c-.148.147-.238.322-.33.495a2.043 2.043 0 0 0-.804 1.603v10.026a4.988 4.988 0 0 0-1.653 1.083 5.29 5.29 0 0 0 0 7.47 5.248 5.248 0 0 0 3.736 1.547c1.41 0 2.737-.55 3.733-1.548a5.248 5.248 0 0 0 1.548-3.733 5.25 5.25 0 0 0-1.548-3.736 4.982 4.982 0 0 0-1.65-1.083v-9.267l36.7-36.7c.045-.045.062-.105.102-.154l4.553 4.555-35.314 35.315c-.014.013-.017.032-.03.045a2.076 2.076 0 0 0-.58 1.43v17.574a4.988 4.988 0 0 0-1.653 1.082 5.287 5.287 0 0 0 0 7.47 5.247 5.247 0 0 0 3.735 1.546 5.24 5.24 0 0 0 3.734-1.546 5.287 5.287 0 0 0 0-7.47 4.982 4.982 0 0 0-1.65-1.082V145.52l34.704-34.705 8.662 8.662L110.986 165c-.102-.005-.197-.03-.299-.03a5.288 5.288 0 0 0-5.281 5.281 5.288 5.288 0 0 0 5.281 5.282 5.288 5.288 0 0 0 5.282-5.282 5.232 5.232 0 0 0-1.262-3.384zm33.325 41.77a5.215 5.215 0 0 0-1.236.162l-6.278-8.369V119.07a2.09 2.09 0 0 0-.548-1.408l-13.675-14.919 10.186-10.186a5.215 5.215 0 0 0 1.953.385 5.287 5.287 0 0 0 5.28-5.282 5.287 5.287 0 0 0-5.28-5.281 5.288 5.288 0 0 0-5.282 5.281c0 .692.142 1.346.383 1.951l-10.06 10.058-5.108-5.573 18.114-18.113a5.248 5.248 0 0 0 1.953.383 5.287 5.287 0 0 0 5.28-5.282 5.287 5.287 0 0 0-5.28-5.281 5.288 5.288 0 0 0-5.282 5.281c0 .692.142 1.348.383 1.953l-17.983 17.987-10.222-11.151v-3.939a5.288 5.288 0 0 0 3.199-4.85 5.288 5.288 0 0 0-5.282-5.281 5.288 5.288 0 0 0-5.281 5.281c0 2.173 1.32 4.04 3.199 4.85v4.749c0 .101.043.19.058.286.023.158.035.315.095.465.055.143.147.26.232.385.058.088.088.19.163.27l34.641 37.79v34.379c0 .451.145.89.417 1.25l6.7 8.933a5.218 5.218 0 0 0-.72 2.612 5.288 5.288 0 0 0 5.281 5.282 5.288 5.288 0 0 0 5.282-5.282 5.288 5.288 0 0 0-5.282-5.281"></path><g transform="translate(354.44 87.6)"><linearGradient id="a" x1="-2.16" x2="4.35" y1="0" y2="0" gradientUnits="objectBoundingBox"><stop offset="0%" stop-color="#6ee2f5"></stop><stop offset="100%" stop-color="#2e19ea"></stop></linearGradient><path fill="url(#a)" d="m446.71 382.6 14.06-33.01h.07l14.06 33.01h-6.41l-2.37-5.67h-10.84l-2.37 5.67Zm10.7-10.77h6.58l-1.38-3.26q-.56-1.31-1.04-2.53-.48-1.22-.91-2.85-.39 1.59-.85 2.83-.46 1.24-1.02 2.55Z" transform="translate(-460.8 -366.1)"></path></g><rect width="28.19" height="33.01" x="-14.1" y="-16.5" fill="none" rx="0" ry="0" transform="translate(354.94 88.1)"></rect><g transform="translate(397.07 93.83)"><linearGradient id="b" x1="-3.43" x2="3.72" y1="0" y2="0" gradientUnits="objectBoundingBox"><stop offset="0%" stop-color="#6ee2f5"></stop><stop offset="100%" stop-color="#2e19ea"></stop></linearGradient><path fill="url(#b)" d="M501.8 383.3q-2.23 0-4.22-1.08-1.98-1.08-3.2-3.15-1.22-2.07-1.22-5.01v-12.71h6.16v11.9q0 1.77 1.08 3.15t3.03 1.38q1.06 0 2-.51.94-.52 1.52-1.51.59-.99.59-2.44v-11.97h6.16v21.25h-5.6v-2.24q-1.13 1.42-2.78 2.18-1.64.76-3.52.76" transform="translate(-503.43 -372.32)"></path></g><rect width="20.54" height="21.95" x="-10.27" y="-10.97" fill="none" rx="0" ry="0" transform="translate(397.57 94.33)"></rect><g transform="translate(434.27 89.93)"><linearGradient id="c" x1="-5.83" x2="3.89" y1="0" y2="0" gradientUnits="objectBoundingBox"><stop offset="0%" stop-color="#6ee2f5"></stop><stop offset="100%" stop-color="#2e19ea"></stop></linearGradient><path fill="url(#c)" d="M537.48 382.6v-16.37h-3.97v-4.88h4.08v-7.09h5.95v7.09h4.21v4.88h-4.11v16.37Z" transform="translate(-540.63 -368.43)"></path></g><rect width="14.24" height="28.34" x="-7.12" y="-14.17" fill="none" rx="0" ry="0" transform="translate(434.77 90.43)"></rect><g transform="translate(470.55 93.47)"><linearGradient id="d" x1="-5.11" x2="1.91" y1="0" y2="0" gradientUnits="objectBoundingBox"><stop offset="0%" stop-color="#6ee2f5"></stop><stop offset="100%" stop-color="#2e19ea"></stop></linearGradient><path fill="url(#d)" d="M576.91 383.3q-2.37 0-4.46-.88-2.09-.89-3.66-2.45-1.58-1.55-2.47-3.61-.88-2.05-.88-4.39t.88-4.39q.89-2.06 2.47-3.61 1.57-1.56 3.66-2.45 2.09-.88 4.46-.88 2.38 0 4.47.88 2.09.89 3.66 2.45 1.58 1.55 2.46 3.61.89 2.05.89 4.39t-.89 4.39q-.88 2.06-2.46 3.61-1.57 1.56-3.66 2.45-2.09.88-4.47.88m0-5.52q1.6 0 2.89-.78t2.05-2.11q.77-1.33.77-2.92 0-1.63-.77-2.94-.76-1.31-2.05-2.09-1.29-.78-2.89-.78-1.59 0-2.88.78-1.3.78-2.06 2.09-.76 1.31-.76 2.94 0 1.59.76 2.92.76 1.33 2.06 2.11 1.29.78 2.88.78" transform="translate(-576.91 -371.97)"></path></g><rect width="22.95" height="22.66" x="-11.47" y="-11.33" fill="none" rx="0" ry="0" transform="translate(471.05 93.97)"></rect><g transform="translate(281.23 154.48)"><linearGradient id="e" x1="-.38" x2="4.94" y1="-1" y2="-1" gradientUnits="objectBoundingBox"><stop offset="0%" stop-color="#6ee2f5"></stop><stop offset="100%" stop-color="#2e19ea"></stop></linearGradient><path fill="url(#e)" d="M372.57 449.45v-32.94h.07l15.09 18.84 14.81-18.84h.07v32.94h-6.17v-9.14q0-1.56.06-3.51.05-1.95.33-4.46-1.09 1.84-2.1 3.19-1.01 1.34-1.86 2.48l-5.24 7.01-5.42-7.01q-.82-1.07-1.93-2.57-1.12-1.51-2.15-3.21.29 2.59.34 4.54.05 1.95.05 3.54v9.14Z" transform="translate(-387.59 -432.98)"></path></g><rect width="30.04" height="32.94" x="-15.02" y="-16.47" fill="none" rx="0" ry="0" transform="translate(281.73 154.98)"></rect><g transform="translate(328.6 160.32)"><linearGradient id="f" x1="-1.79" x2="5.43" y1="-1" y2="-1" gradientUnits="objectBoundingBox"><stop offset="0%" stop-color="#6ee2f5"></stop><stop offset="100%" stop-color="#2e19ea"></stop></linearGradient><path fill="url(#f)" d="M435.98 450.15q-2.69 0-4.9-.85-2.21-.85-3.83-2.39-1.61-1.54-2.47-3.66-.87-2.13-.87-4.64 0-2.41.85-4.45.85-2.03 2.37-3.52 1.52-1.49 3.54-2.32 2.02-.83 4.36-.83 3.15 0 5.63 1.43 2.48 1.44 3.91 3.92 1.44 2.48 1.44 5.63v2.16h-12.96q-.89 0-1.7-.11-.82-.1-1.63-.25.28 1.42 1.13 2.5.85 1.08 2.2 1.68 1.34.6 3.08.6 2.02 0 3.63-.81 1.61-.81 2.64-2.02l1.34 5.53q-1.59 1.2-3.59 1.8-2 .6-4.17.6m-6.41-13.6q.85-.17 1.72-.28.87-.1 1.76-.1h3.75q.99 0 1.88.07.88.07 1.66.24-.35-1.27-1.1-2.19-.74-.92-1.82-1.42-1.08-.49-2.46-.49-1.31 0-2.39.51t-1.84 1.43q-.77.92-1.16 2.23" transform="translate(-434.96 -438.82)"></path></g><rect width="22.1" height="22.66" x="-11.05" y="-11.33" fill="none" rx="0" ry="0" transform="translate(329.1 160.82)"></rect><g transform="translate(369.94 159.97)"><linearGradient id="g" x1="-2.81" x2="4.48" y1="-1" y2="-1" gradientUnits="objectBoundingBox"><stop offset="0%" stop-color="#6ee2f5"></stop><stop offset="100%" stop-color="#2e19ea"></stop></linearGradient><path fill="url(#g)" d="M466.03 449.45V428.2h5.53v2.33q1.13-1.48 2.8-2.26 1.66-.78 3.57-.78 2.27 0 4.24 1.08 1.96 1.08 3.18 3.15 1.23 2.07 1.23 5.01v12.72h-6.17v-11.9q0-1.77-1.06-3.16-1.06-1.38-3.05-1.38-1.06 0-2 .48t-1.52 1.45q-.58.98-.58 2.54v11.97Z" transform="translate(-476.3 -438.47)"></path></g><rect width="20.55" height="21.96" x="-10.28" y="-10.98" fill="none" rx="0" ry="0" transform="translate(370.44 160.47)"></rect><g transform="translate(406.01 156.78)"><linearGradient id="h" x1="-4.77" x2="4.6" y1="-1" y2="-1" gradientUnits="objectBoundingBox"><stop offset="0%" stop-color="#6ee2f5"></stop><stop offset="100%" stop-color="#2e19ea"></stop></linearGradient><path fill="url(#h)" d="M509.22 449.45v-16.37h-3.96v-4.88h4.07v-7.09h5.95v7.09h4.21v4.88h-4.11v16.37Z" transform="translate(-512.38 -435.28)"></path></g><rect width="14.23" height="28.34" x="-7.12" y="-14.17" fill="none" rx="0" ry="0" transform="translate(406.51 157.28)"></rect><g transform="translate(436.1 155.49)"><linearGradient id="i" x1="-6.8" x2="4.43" y1="-1" y2="-1" gradientUnits="objectBoundingBox"><stop offset="0%" stop-color="#6ee2f5"></stop><stop offset="100%" stop-color="#2e19ea"></stop></linearGradient><path fill="url(#i)" d="M539.38 449.45V428.2h6.16v21.25Zm3.08-24.33q-.92 0-1.67-.45-.74-.44-1.18-1.18-.45-.75-.45-1.67 0-.95.45-1.7.44-.74 1.18-1.17.75-.42 1.67-.42.95 0 1.7.42.74.43 1.17 1.17.42.75.42 1.7 0 .92-.42 1.67-.43.74-1.17 1.18-.75.45-1.7.45" transform="translate(-542.46 -433.99)"></path></g><rect width="6.59" height="30.92" x="-3.29" y="-15.46" fill="none" rx="0" ry="0" transform="translate(436.6 155.99)"></rect><g transform="translate(470.96 160.32)"><linearGradient id="j" x1="-5.12" x2="1.9" y1="-1" y2="-1" gradientUnits="objectBoundingBox"><stop offset="0%" stop-color="#6ee2f5"></stop><stop offset="100%" stop-color="#2e19ea"></stop></linearGradient><path fill="url(#j)" d="M577.32 450.15q-2.37 0-4.46-.88-2.09-.89-3.66-2.44-1.58-1.56-2.47-3.62-.88-2.05-.88-4.39t.88-4.39q.89-2.05 2.47-3.61 1.57-1.56 3.66-2.45 2.09-.88 4.46-.88 2.38 0 4.47.88 2.09.89 3.66 2.45 1.58 1.56 2.46 3.61.89 2.05.89 4.39t-.89 4.39q-.88 2.06-2.46 3.62-1.57 1.55-3.66 2.44-2.09.88-4.47.88m0-5.52q1.6 0 2.89-.78t2.05-2.11q.77-1.32.77-2.92 0-1.63-.77-2.94-.76-1.31-2.05-2.09-1.29-.78-2.89-.78-1.59 0-2.88.78-1.29.78-2.06 2.09-.76 1.31-.76 2.94 0 1.6.76 2.92.77 1.33 2.06 2.11 1.29.78 2.88.78" transform="translate(-577.33 -438.82)"></path></g><rect width="22.95" height="22.66" x="-11.47" y="-11.33" fill="none" rx="0" ry="0" transform="translate(471.46 160.82)"></rect><g transform="translate(512.95 159.97)"><linearGradient id="k" x1="-6.22" x2=".93" y1="-1" y2="-1" gradientUnits="objectBoundingBox"><stop offset="0%" stop-color="#6ee2f5"></stop><stop offset="100%" stop-color="#2e19ea"></stop></linearGradient><path fill="url(#k)" d="M609.04 449.45V428.2h5.52v2.33q1.14-1.48 2.8-2.26 1.67-.78 3.58-.78 2.26 0 4.23 1.08 1.97 1.08 3.19 3.15t1.22 5.01v12.72h-6.16v-11.9q0-1.77-1.07-3.16-1.06-1.38-3.04-1.38-1.06 0-2 .48t-1.53 1.45q-.58.98-.58 2.54v11.97Z" transform="translate(-619.31 -438.47)"></path></g><rect width="20.54" height="21.96" x="-10.27" y="-10.98" fill="none" rx="0" ry="0" transform="translate(513.45 160.47)"></rect><g transform="translate(551.28 160.32)"><linearGradient id="l" x1="-8.45" x2=".09" y1="-1" y2="-1" gradientUnits="objectBoundingBox"><stop offset="0%" stop-color="#6ee2f5"></stop><stop offset="100%" stop-color="#2e19ea"></stop></linearGradient><path fill="url(#l)" d="M657.43 450.15q-2.16 0-4.37-.7-2.22-.71-3.45-1.92l1.52-5.8q1.03 1.41 2.85 2.47 1.82 1.07 3.77 1.07 1.31 0 1.9-.5.58-.49.58-1.2 0-.82-.6-1.19t-1.24-.62l-2.98-1.13q-.99-.39-2.26-1.06-1.28-.68-2.22-1.92-.94-1.24-.94-3.26 0-1.84.93-3.4.92-1.55 2.67-2.53 1.75-.97 4.23-.97 2.3 0 4.31.78 2 .78 2.92 1.73l-1.42 5.6q-.81-1.03-1.82-1.75-1.01-.73-2.09-1.1-1.08-.37-2.08-.37-1.13 0-1.66.46t-.53 1.06q0 .46.37.9t1.26.8l2.76 1.03q1.2.42 2.57 1.13 1.36.71 2.32 1.96.95 1.26.95 3.46 0 2.05-1.04 3.63-1.05 1.57-2.9 2.46-1.86.88-4.31.88" transform="translate(-657.64 -438.82)"></path></g><rect width="16.07" height="22.66" x="-8.04" y="-11.33" fill="none" rx="0" ry="0" transform="translate(551.78 160.82)"></rect></svg></svg>